<svg width="209" height="161" viewBox="0 0 209 161" fill="none" xmlns="http://www.w3.org/2000/svg">
<path fill-rule="evenodd" clip-rule="evenodd" d="M100.92 0.449623C101.47 1.88162 101.95 6.68063 101.73 8.59263C100.76 17.1746 97.59 21.5876 87.67 28.1726C76.52 35.5696 72.64 42.2116 72.66 53.8336C72.71 85.0356 110.83 98.0276 129.2 73.1046C136.57 63.1066 137.75 47.9276 131.92 38.2256C130.39 35.6756 130.2 35.6806 127.95 38.3166C123.28 43.7846 122.57 46.2316 122.74 56.4876L122.85 63.3236L121.59 65.9796C113.94 82.1296 87.97 78.6716 84.37 61.0246C82.45 51.6126 88.43 45.1016 104.49 39.1276C120.59 33.1346 124.24 23.2476 114.72 11.3696C110.89 6.58261 99.96 -2.06638 100.92 0.449623ZM150.39 66.2086C147.1 66.9096 144.82 68.7276 143.73 71.5276C142.82 73.8826 143.21 153.897 144.15 155.727C147.84 162.967 160.06 162.217 162.21 154.627C162.64 153.107 162.69 145.427 162.52 111.927L162.3 71.0776L161.32 69.6516C159.46 66.9256 154.44 65.3456 150.39 66.2086ZM51.4701 66.6416C49.6001 67.2026 47.72 68.5876 46.79 70.0816L45.89 71.5266L45.79 112.737C45.68 156.437 45.62 154.957 47.54 157.567C51.54 162.997 62.83 161.097 64.75 154.667C65.41 152.457 65.44 74.2886 64.78 72.0816C63.39 67.4196 57.2301 64.9056 51.4701 66.6416ZM24.4601 82.4266C22.7401 83.0686 20.9201 84.6636 19.9801 86.3696C19.3901 87.4296 19.3301 89.9976 19.3501 113.127L19.3601 138.717L20.2201 140.347C23.5201 146.617 33.74 145.987 35.51 139.407C35.82 138.277 35.9201 130.087 35.8401 112.047L35.74 86.3086L34.64 84.8746C32.64 82.2416 27.9701 81.1206 24.4601 82.4266ZM177.22 82.4196C175.42 83.0876 174.34 84.0146 173.52 85.5876C172.77 87.0256 172.38 135.167 173.09 138.817C174.48 145.947 184.92 147.047 188.3 140.427C189.05 138.957 189.07 138.147 188.97 112.777L188.86 86.6376L187.67 85.1366C185.47 82.3786 180.67 81.1326 177.22 82.4196ZM4.66003 99.3586C0.560034 101.434 0 103.211 0 114.107C0 125.317 1.34008 127.947 7.71008 129.327L8.9801 129.597V113.937V98.2846H7.88C7.27 98.2846 5.82003 98.7676 4.66003 99.3586ZM199.6 113.907C199.6 131.407 199.36 130.077 202.44 128.977C207.79 127.067 208.66 124.777 208.51 112.987L208.39 103.818L207.21 102.126C205.84 100.176 202.75 98.3066 200.87 98.2936L199.6 98.2846V113.907ZM90.2301 104.006C75.9001 105.295 75.1901 105.824 75.1901 115.277C75.1901 126.597 77.89 127.777 103.9 127.777C130.33 127.777 133.17 126.577 133.19 115.397C133.2 106.631 132.51 105.782 124.41 104.663C120.28 104.093 94.7301 103.602 90.2301 104.006Z" fill="#303D34"/>
<path fill-rule="evenodd" clip-rule="evenodd" d="M106.06 54.3626L102.53 58.0976L100.37 55.7296C97.71 52.8236 95.7601 52.4636 93.7201 54.5036C91.6201 56.5966 92.0001 57.7916 96.1901 62.3746C102.48 69.2636 102.83 69.2436 109.95 61.5626C115.57 55.5006 116.11 53.6686 112.91 51.5136C110.61 49.9596 109.95 50.2306 106.06 54.3626Z" fill="#7FB782"/>
</svg>
